<svg width="16" height="18" viewBox="0 0 16 18" fill="black" xmlns="http://www.w3.org/2000/svg">
<path fill-rule="evenodd" clip-rule="evenodd" d="M15.2904 15.667C15.2904 16.2745 15.0487 16.8578 14.6195 17.2878C14.1895 17.717 13.6062 17.9587 12.9987 17.9587H2.9987C2.3912 17.9587 1.80786 17.717 1.37786 17.2878C0.948698 16.8578 0.707031 16.2745 0.707031 15.667V2.33366C0.707031 1.72616 0.948698 1.14283 1.37786 0.712826C1.80786 0.283659 2.3912 0.0419922 2.9987 0.0419922H10.1537C10.5404 0.0419922 10.9112 0.195326 11.1845 0.469492L14.8629 4.14783C15.137 4.42116 15.2904 4.79199 15.2904 5.17866V15.667ZM4.66536 14.6253H8.41536C8.76036 14.6253 9.04037 14.3453 9.04037 14.0003C9.04037 13.6553 8.76036 13.3753 8.41536 13.3753H4.66536C4.32036 13.3753 4.04036 13.6553 4.04036 14.0003C4.04036 14.3453 4.32036 14.6253 4.66536 14.6253ZM4.66536 11.7087H11.332C11.677 11.7087 11.957 11.4287 11.957 11.0837C11.957 10.7387 11.677 10.4587 11.332 10.4587H4.66536C4.32036 10.4587 4.04036 10.7387 4.04036 11.0837C4.04036 11.4287 4.32036 11.7087 4.66536 11.7087ZM10.082 1.50033V4.41699C10.082 4.87699 10.4554 5.25033 10.9154 5.25033H13.832L10.082 1.50033ZM4.66536 8.79199H11.332C11.677 8.79199 11.957 8.51199 11.957 8.16699C11.957 7.82199 11.677 7.54199 11.332 7.54199H4.66536C4.32036 7.54199 4.04036 7.82199 4.04036 8.16699C4.04036 8.51199 4.32036 8.79199 4.66536 8.79199Z" />
</svg>
